<mxfile host="app.diagrams.net" agent="Mozilla/5.0 (X11; Ubuntu; Linux x86_64; rv:132.0) Gecko/20100101 Firefox/132.0" version="26.0.9">
  <diagram name="Page-1" id="oSllkNuV81bodUe4vBim">
    <mxGraphModel dx="1605" dy="935" grid="1" gridSize="10" guides="1" tooltips="1" connect="1" arrows="1" fold="1" page="1" pageScale="1" pageWidth="850" pageHeight="1100" math="0" shadow="0">
      <root>
        <mxCell id="0" />
        <mxCell id="1" parent="0" />
        <mxCell id="kx1fSZhkwajF8JjLNtF1-3" value="" style="edgeStyle=orthogonalEdgeStyle;rounded=0;orthogonalLoop=1;jettySize=auto;html=1;" edge="1" parent="1" source="kx1fSZhkwajF8JjLNtF1-1">
          <mxGeometry relative="1" as="geometry">
            <mxPoint x="450.0588235294117" y="270" as="targetPoint" />
          </mxGeometry>
        </mxCell>
        <mxCell id="kx1fSZhkwajF8JjLNtF1-1" value="START" style="ellipse;whiteSpace=wrap;html=1;" vertex="1" parent="1">
          <mxGeometry x="380" y="10" width="120" height="80" as="geometry" />
        </mxCell>
        <mxCell id="kx1fSZhkwajF8JjLNtF1-5" value="" style="edgeStyle=orthogonalEdgeStyle;rounded=0;orthogonalLoop=1;jettySize=auto;html=1;" edge="1" parent="1" source="kx1fSZhkwajF8JjLNtF1-30">
          <mxGeometry relative="1" as="geometry">
            <mxPoint x="450.0588235294117" y="330" as="sourcePoint" />
            <mxPoint x="440" y="440" as="targetPoint" />
          </mxGeometry>
        </mxCell>
        <mxCell id="kx1fSZhkwajF8JjLNtF1-9" value="" style="edgeStyle=orthogonalEdgeStyle;rounded=0;orthogonalLoop=1;jettySize=auto;html=1;" edge="1" parent="1">
          <mxGeometry relative="1" as="geometry">
            <mxPoint x="400" y="480" as="sourcePoint" />
            <mxPoint x="280" y="720" as="targetPoint" />
          </mxGeometry>
        </mxCell>
        <mxCell id="kx1fSZhkwajF8JjLNtF1-10" value="" style="edgeStyle=orthogonalEdgeStyle;rounded=0;orthogonalLoop=1;jettySize=auto;html=1;" edge="1" parent="1" source="kx1fSZhkwajF8JjLNtF1-15">
          <mxGeometry relative="1" as="geometry">
            <mxPoint x="280" y="770" as="targetPoint" />
          </mxGeometry>
        </mxCell>
        <mxCell id="kx1fSZhkwajF8JjLNtF1-13" value="" style="edgeStyle=orthogonalEdgeStyle;rounded=0;orthogonalLoop=1;jettySize=auto;html=1;entryX=0.5;entryY=0;entryDx=0;entryDy=0;" edge="1" parent="1" target="kx1fSZhkwajF8JjLNtF1-32">
          <mxGeometry relative="1" as="geometry">
            <mxPoint x="480" y="479.5" as="sourcePoint" />
            <mxPoint x="550" y="479.5" as="targetPoint" />
          </mxGeometry>
        </mxCell>
        <mxCell id="kx1fSZhkwajF8JjLNtF1-14" value="False" style="edgeLabel;html=1;align=center;verticalAlign=middle;resizable=0;points=[];" vertex="1" connectable="0" parent="kx1fSZhkwajF8JjLNtF1-13">
          <mxGeometry x="-0.4" y="-3" relative="1" as="geometry">
            <mxPoint as="offset" />
          </mxGeometry>
        </mxCell>
        <mxCell id="kx1fSZhkwajF8JjLNtF1-16" value="" style="edgeStyle=orthogonalEdgeStyle;rounded=0;orthogonalLoop=1;jettySize=auto;html=1;" edge="1" parent="1" source="kx1fSZhkwajF8JjLNtF1-35" target="kx1fSZhkwajF8JjLNtF1-15">
          <mxGeometry relative="1" as="geometry">
            <mxPoint x="400" y="480" as="sourcePoint" />
            <mxPoint x="280" y="720" as="targetPoint" />
          </mxGeometry>
        </mxCell>
        <mxCell id="kx1fSZhkwajF8JjLNtF1-15" value="voto &amp;gt; 0" style="rhombus;whiteSpace=wrap;html=1;" vertex="1" parent="1">
          <mxGeometry x="240" y="520" width="80" height="80" as="geometry" />
        </mxCell>
        <mxCell id="kx1fSZhkwajF8JjLNtF1-20" value="media = 0" style="rounded=0;whiteSpace=wrap;html=1;" vertex="1" parent="1">
          <mxGeometry x="390" y="260" width="120" height="60" as="geometry" />
        </mxCell>
        <mxCell id="kx1fSZhkwajF8JjLNtF1-34" style="edgeStyle=orthogonalEdgeStyle;rounded=0;orthogonalLoop=1;jettySize=auto;html=1;exitX=0;exitY=0.5;exitDx=0;exitDy=0;" edge="1" parent="1" source="kx1fSZhkwajF8JjLNtF1-21">
          <mxGeometry relative="1" as="geometry">
            <mxPoint x="180" y="390" as="targetPoint" />
          </mxGeometry>
        </mxCell>
        <mxCell id="kx1fSZhkwajF8JjLNtF1-40" value="t" style="edgeLabel;html=1;align=center;verticalAlign=middle;resizable=0;points=[];" vertex="1" connectable="0" parent="kx1fSZhkwajF8JjLNtF1-34">
          <mxGeometry x="1" y="-3" relative="1" as="geometry">
            <mxPoint x="-1" y="-2" as="offset" />
          </mxGeometry>
        </mxCell>
        <mxCell id="kx1fSZhkwajF8JjLNtF1-21" value="media =somma / count voto " style="whiteSpace=wrap;html=1;" vertex="1" parent="1">
          <mxGeometry x="222" y="860" width="120" height="60" as="geometry" />
        </mxCell>
        <mxCell id="kx1fSZhkwajF8JjLNtF1-23" value="somma+=voto" style="rounded=0;whiteSpace=wrap;html=1;" vertex="1" parent="1">
          <mxGeometry x="220" y="630" width="120" height="60" as="geometry" />
        </mxCell>
        <mxCell id="kx1fSZhkwajF8JjLNtF1-25" value="count voto += 1" style="rounded=0;whiteSpace=wrap;html=1;" vertex="1" parent="1">
          <mxGeometry x="220" y="730" width="120" height="60" as="geometry" />
        </mxCell>
        <mxCell id="kx1fSZhkwajF8JjLNtF1-28" value="&lt;div&gt;risposta == &quot;si&quot;&lt;br&gt;&lt;/div&gt;" style="rhombus;whiteSpace=wrap;html=1;" vertex="1" parent="1">
          <mxGeometry x="400" y="440" width="80" height="80" as="geometry" />
        </mxCell>
        <mxCell id="kx1fSZhkwajF8JjLNtF1-31" value="count voto = 0" style="rounded=0;whiteSpace=wrap;html=1;" vertex="1" parent="1">
          <mxGeometry x="390" y="110" width="120" height="60" as="geometry" />
        </mxCell>
        <mxCell id="kx1fSZhkwajF8JjLNtF1-32" value="END" style="ellipse;whiteSpace=wrap;html=1;" vertex="1" parent="1">
          <mxGeometry x="550" y="630" width="120" height="80" as="geometry" />
        </mxCell>
        <mxCell id="kx1fSZhkwajF8JjLNtF1-36" value="" style="edgeStyle=orthogonalEdgeStyle;rounded=0;orthogonalLoop=1;jettySize=auto;html=1;" edge="1" parent="1" target="kx1fSZhkwajF8JjLNtF1-35">
          <mxGeometry relative="1" as="geometry">
            <mxPoint x="400" y="480" as="sourcePoint" />
            <mxPoint x="280" y="520" as="targetPoint" />
          </mxGeometry>
        </mxCell>
        <mxCell id="kx1fSZhkwajF8JjLNtF1-37" value="True" style="edgeLabel;html=1;align=center;verticalAlign=middle;resizable=0;points=[];" vertex="1" connectable="0" parent="kx1fSZhkwajF8JjLNtF1-36">
          <mxGeometry x="-0.075" y="2" relative="1" as="geometry">
            <mxPoint x="-82" y="119" as="offset" />
          </mxGeometry>
        </mxCell>
        <mxCell id="kx1fSZhkwajF8JjLNtF1-38" value="TRUE" style="edgeLabel;html=1;align=center;verticalAlign=middle;resizable=0;points=[];" vertex="1" connectable="0" parent="kx1fSZhkwajF8JjLNtF1-36">
          <mxGeometry x="-0.0364" y="-4" relative="1" as="geometry">
            <mxPoint x="-44" y="24" as="offset" />
          </mxGeometry>
        </mxCell>
        <mxCell id="kx1fSZhkwajF8JjLNtF1-35" value="read voto" style="shape=parallelogram;perimeter=parallelogramPerimeter;whiteSpace=wrap;html=1;fixedSize=1;" vertex="1" parent="1">
          <mxGeometry x="270" y="450" width="110" height="40" as="geometry" />
        </mxCell>
        <mxCell id="kx1fSZhkwajF8JjLNtF1-39" value="" style="edgeStyle=orthogonalEdgeStyle;rounded=0;orthogonalLoop=1;jettySize=auto;html=1;" edge="1" parent="1" target="kx1fSZhkwajF8JjLNtF1-30">
          <mxGeometry relative="1" as="geometry">
            <mxPoint x="450.0588235294117" y="330" as="sourcePoint" />
            <mxPoint x="440" y="440" as="targetPoint" />
          </mxGeometry>
        </mxCell>
        <mxCell id="kx1fSZhkwajF8JjLNtF1-30" value="read risposta" style="shape=parallelogram;perimeter=parallelogramPerimeter;whiteSpace=wrap;html=1;fixedSize=1;" vertex="1" parent="1">
          <mxGeometry x="390" y="350" width="120" height="60" as="geometry" />
        </mxCell>
        <mxCell id="kx1fSZhkwajF8JjLNtF1-41" value="" style="endArrow=classic;html=1;rounded=0;entryX=0.042;entryY=0.858;entryDx=0;entryDy=0;entryPerimeter=0;" edge="1" parent="1" target="kx1fSZhkwajF8JjLNtF1-30">
          <mxGeometry width="50" height="50" relative="1" as="geometry">
            <mxPoint x="180" y="400" as="sourcePoint" />
            <mxPoint x="230" y="350" as="targetPoint" />
          </mxGeometry>
        </mxCell>
        <mxCell id="kx1fSZhkwajF8JjLNtF1-42" value="" style="endArrow=classic;html=1;rounded=0;" edge="1" parent="1" target="kx1fSZhkwajF8JjLNtF1-21">
          <mxGeometry width="50" height="50" relative="1" as="geometry">
            <mxPoint x="280" y="790" as="sourcePoint" />
            <mxPoint x="330" y="740" as="targetPoint" />
          </mxGeometry>
        </mxCell>
      </root>
    </mxGraphModel>
  </diagram>
</mxfile>
